HIERARCHY
ROOT Hips
{
	OFFSET	0.000000	0.000000	0.000000
	CHANNELS 6 Xposition Yposition Zposition Zrotation Xrotation Yrotation
	JOINT LeftHip
	{
		OFFSET	4.740440	-3.195970	-0.322709
		CHANNELS 3 Zrotation Xrotation Yrotation
		JOINT LeftKnee
		{
			OFFSET	-1.605680	-15.592300	1.005510
			CHANNELS 3 Zrotation Xrotation Yrotation
			JOINT LeftAnkle
			{
				OFFSET	-0.632401	-16.421000	-1.413730
				CHANNELS 3 Zrotation Xrotation Yrotation
				End Site
				{
					OFFSET	0.008423	-2.933000	-1.776750
				}
			}
		}
	}
	JOINT RightHip
	{
		OFFSET	-4.740440	-3.195970	-0.322709
		CHANNELS 3 Zrotation Xrotation Yrotation
		JOINT RightKnee
		{
			OFFSET	1.605680	-15.592300	1.005510
			CHANNELS 3 Zrotation Xrotation Yrotation
			JOINT RightAnkle
			{
				OFFSET	0.632401	-16.421000	-1.413730
				CHANNELS 3 Zrotation Xrotation Yrotation
				End Site
				{
					OFFSET	-0.008423	-2.933000	-1.776750
				}
			}
		}
	}
	JOINT Chest
	{
		OFFSET	0.000000	3.468200	0.078401
		CHANNELS 3 Zrotation Xrotation Yrotation
		JOINT LeftCollar
		{
			OFFSET	3.857650	15.070700	-0.011583
			CHANNELS 3 Zrotation Xrotation Yrotation
			JOINT LeftShoulder
			{
				OFFSET	3.979720	-1.940530	-0.165223
				CHANNELS 3 Zrotation Xrotation Yrotation
				JOINT LeftElbow
				{
					OFFSET	0.615844	-10.986600	-0.673886
					CHANNELS 3 Zrotation Xrotation Yrotation
					JOINT LeftWrist
					{
						OFFSET	0.826843	-10.854500	1.034220
						CHANNELS 3 Zrotation Xrotation Yrotation
						End Site
						{
							OFFSET	-1.679080	-8.456540	0.936217
						}
					}
				}
			}
		}
		JOINT RightCollar
		{
			OFFSET	-3.857650	15.070700	-0.011583
			CHANNELS 3 Zrotation Xrotation Yrotation
			JOINT RightShoulder
			{
				OFFSET	-3.979720	-1.940530	-0.165223
				CHANNELS 3 Zrotation Xrotation Yrotation
				JOINT RightElbow
				{
					OFFSET	-0.615845	-10.986600	-0.673886
					CHANNELS 3 Zrotation Xrotation Yrotation
					JOINT RightWrist
					{
						OFFSET	-0.826843	-10.854500	1.034220
						CHANNELS 3 Zrotation Xrotation Yrotation
						End Site
						{
							OFFSET	1.679080	-8.456540	0.936217
						}
					}
				}
			}
		}
		JOINT Neck
		{
			OFFSET	0.000000	15.101400	0.055730
			CHANNELS 3 Zrotation Xrotation Yrotation
			JOINT Head
			{
				OFFSET	0.000000	4.185120	1.488260
				CHANNELS 3 Zrotation Xrotation Yrotation
				End Site
				{
					OFFSET	0.000000	7.773420	-0.106016
				}
			}
		}
	}
}
MOTION
Frames:     19
Frame Time: 0.016667
9.591439	38.023048	-6.926299	6.059962	-5.260831	-5.835311	-6.052381	6.786288	-0.489246	-5.640892	-2.965808	6.195699	6.703882	-0.610814	5.921308	-18.645866	-2.144067	-2.613238	-2.492358	11.652372	2.126009	12.391061	-3.701064	9.282299	-6.672358	0.351329	-2.676294	-8.653982	5.139006	8.554079	5.285311	-3.974564	3.206347	-2.713223	-9.815726	-10.584031	15.785106	6.262510	-18.017109	-6.813873	2.837646	11.707532	1.507523	-1.967898	11.264521	-1.094827	-9.945566	3.557465	-13.421824	2.698853	18.020180	-6.290247	10.537278	5.268353	7.882947	0.028825	-15.599268	
9.590698	38.023361	-6.931335	6.068395	-5.292638	-5.841017	-6.065125	6.816219	-0.479482	-5.640892	-2.965808	6.195699	6.703882	-0.610814	5.921308	-18.655169	-2.130329	-2.600042	-2.495364	11.665504	2.129520	12.391061	-3.701064	9.282299	-6.679399	0.383107	-2.688487	-8.644101	5.127009	8.559510	5.286328	-3.958869	3.220417	-2.661757	-9.725941	-10.555708	15.837254	6.275474	-18.076578	-6.795533	2.824614	11.725180	1.571207	-1.953861	11.268005	-1.104127	-9.911873	3.533713	-13.502593	2.661417	17.944044	-6.298818	10.532694	5.290539	7.899443	0.059376	-15.583191	
9.590436	38.023369	-6.933656	6.071238	-5.303883	-5.842969	-6.069488	6.826820	-0.476104	-5.640892	-2.965808	6.195699	6.703882	-0.610814	5.921308	-18.658079	-2.127370	-2.595848	-2.496861	11.672048	2.131268	12.391061	-3.701064	9.282299	-6.682057	0.394222	-2.691395	-8.640130	5.123124	8.559929	5.289562	-3.952230	3.225464	-2.649527	-9.699408	-10.546752	15.838171	6.318579	-18.066116	-6.787452	2.821417	11.728199	1.585448	-1.949742	11.270902	-1.104225	-9.901634	3.515446	-13.526523	2.651101	17.957867	-6.301280	10.531385	5.296904	7.913517	0.066801	-15.573369	
9.589687	38.023289	-6.940927	6.079073	-5.337493	-5.848517	-6.081835	6.858616	-0.466340	-5.640892	-2.965808	6.195699	6.703882	-0.610814	5.921308	-18.665981	-2.119483	-2.583878	-2.501602	11.692719	2.136822	12.391061	-3.701064	9.282299	-6.693110	0.425983	-2.682242	-8.616860	5.113563	8.537332	5.298705	-3.926848	3.245839	-2.659610	-9.680647	-10.537038	15.841904	6.373510	-18.055016	-6.757504	2.815640	11.718863	1.635848	-1.936938	11.280059	-1.108268	-9.852571	3.460121	-13.611045	2.584928	17.861923	-6.284287	10.541674	5.292016	7.953819	0.084898	-15.530039	
9.589409	38.023273	-6.943430	6.082089	-5.348713	-5.850542	-6.086380	6.869166	-0.462872	-5.640892	-2.965808	6.195699	6.703882	-0.610814	5.921308	-18.668970	-2.117284	-2.579781	-2.503266	11.699942	2.138780	12.391061	-3.701064	9.282299	-6.697268	0.436495	-2.678687	-8.588396	5.119738	8.523563	5.296375	-3.918318	3.257426	-2.663394	-9.657043	-10.526575	15.834681	6.381363	-18.047319	-6.746932	2.813649	11.715324	1.656783	-1.914365	11.266497	-1.120415	-9.839328	3.456718	-13.634621	2.549047	17.825842	-6.256421	10.558948	5.276281	7.946830	0.081041	-15.502798	
9.588490	38.023304	-6.950891	6.092234	-5.382148	-5.857090	-6.100379	6.895959	-0.450923	-5.641727	-2.961271	6.195055	6.703882	-0.610814	5.921308	-18.678972	-2.111192	-2.567008	-2.508245	11.721603	2.144618	12.391061	-3.701064	9.282299	-6.702597	0.460152	-2.666506	-8.566649	5.117671	8.495722	5.344437	-3.875196	3.281800	-2.709998	-9.639064	-10.511153	15.825371	6.396807	-18.053041	-6.719429	2.817858	11.707228	1.680711	-1.863759	11.233055	-1.123383	-9.785221	3.437197	-13.702029	2.442977	17.769053	-6.199694	10.606468	5.243288	7.933848	0.105413	-15.434301	
9.588169	38.023342	-6.953407	6.095773	-5.393801	-5.859373	-6.104624	6.901624	-0.445926	-5.642710	-2.955948	6.194289	6.703882	-0.610814	5.921308	-18.682501	-2.108770	-2.562481	-2.509909	11.728861	2.146566	12.391061	-3.701064	9.282299	-6.702508	0.466623	-2.662023	-8.526100	5.121722	8.465315	5.325659	-3.857065	3.307624	-2.715018	-9.618834	-10.501793	15.820934	6.426487	-18.094835	-6.710032	2.824613	11.707155	1.693241	-1.843625	11.208803	-1.133116	-9.772902	3.440264	-13.723612	2.406868	17.737860	-6.168067	10.633362	5.220157	7.906613	0.108267	-15.405235	
9.586447	38.022850	-6.958395	6.105601	-5.430079	-5.865947	-6.117428	6.924305	-0.432092	-5.644860	-2.944336	6.192622	6.703882	-0.610814	5.921308	-18.692289	-2.101242	-2.549034	-2.514569	11.762577	2.153596	12.390151	-3.711809	9.283646	-6.700373	0.486338	-2.648603	-8.487427	5.135770	8.431836	5.356290	-3.816496	3.335924	-2.757558	-9.585430	-10.500952	15.839228	6.414431	-18.124893	-6.680492	2.848286	11.704811	1.718850	-1.781165	11.122904	-1.210667	-9.746096	3.452305	-13.730607	2.299516	17.645189	-6.140944	10.674128	5.194359	7.874401	0.110620	-15.373077	
9.585656	38.022568	-6.959472	6.108991	-5.442584	-5.868210	-6.121428	6.929702	-0.426793	-5.646050	-2.937871	6.191710	6.703882	-0.610814	5.921308	-18.695627	-2.098919	-2.544480	-2.516096	11.777066	2.156360	12.389610	-3.718102	9.284398	-6.699379	0.492902	-2.643961	-8.423878	5.151303	8.400614	5.312111	-3.805716	3.361044	-2.768814	-9.574492	-10.493817	15.835505	6.419708	-18.169846	-6.638849	2.889374	11.649430	1.688735	-1.801860	11.149075	-1.215326	-9.716815	3.460845	-13.748766	2.261919	17.610430	-6.118350	10.696477	5.176269	7.858395	0.087993	-15.352641	
9.583129	38.021587	-6.962755	6.119565	-5.480840	-5.875216	-6.133812	6.945827	-0.410389	-5.649766	-2.917728	6.188853	6.703882	-0.610814	5.921308	-18.705893	-2.093090	-2.530624	-2.520989	11.823827	2.165155	12.387892	-3.738577	9.286859	-6.695925	0.512378	-2.629583	-8.392164	5.145834	8.356329	5.292584	-3.765208	3.379245	-2.744948	-9.518705	-10.452915	15.800680	6.352742	-18.209919	-6.623737	2.935360	11.599706	1.723519	-1.821726	11.110157	-1.219883	-9.610447	3.525554	-13.829124	2.176793	17.424328	-6.065593	10.756181	5.132683	7.836381	0.018482	-15.295531	
9.582231	38.021214	-6.963879	6.123184	-5.493740	-5.877592	-6.138045	6.951277	-0.404829	-5.651018	-2.910959	6.187882	6.703882	-0.610814	5.921308	-18.709332	-2.091707	-2.526071	-2.522745	11.840662	2.168339	12.387265	-3.745991	9.287746	-6.694384	0.518549	-2.624669	-8.395788	5.150085	8.353038	5.306884	-3.757044	3.358928	-2.741364	-9.500286	-10.442100	15.788667	6.349396	-18.212154	-6.586428	2.988908	11.560948	1.697801	-1.858176	11.118006	-1.224143	-9.573610	3.539244	-13.851830	2.134381	17.358425	-6.034647	10.785027	5.109052	7.815881	-0.011812	-15.268578	
9.581108	38.020042	-6.968587	6.134352	-5.533670	-5.884936	-6.151121	6.968153	-0.387670	-5.654881	-2.890008	6.184923	6.703882	-0.610814	5.921308	-18.720011	-2.086901	-2.511844	-2.527343	11.884282	2.239330	12.380869	-3.774298	9.228621	-6.688205	0.536402	-2.609310	-8.375969	5.236905	8.270689	5.358988	-3.775325	3.375148	-2.795197	-9.482932	-10.444834	15.747099	6.398926	-18.152927	-6.560821	3.049891	11.495514	1.728516	-1.845675	11.069266	-1.292735	-9.554957	3.508914	-13.879368	2.033952	17.208683	-5.979210	10.851395	5.060337	7.800430	-0.092859	-15.201710	
9.572817	38.021843	-6.973972	6.138483	-5.547542	-5.887598	-6.155929	6.973951	-0.381583	-5.656223	-2.882710	6.183907	6.703882	-0.610814	5.921308	-18.723970	-2.085234	-2.506772	-2.493534	11.889675	2.305039	12.341134	-3.783671	9.158370	-6.676174	0.536825	-2.615403	-8.419203	5.284513	8.237493	5.451900	-3.785088	3.425416	-2.865017	-9.501560	-10.464444	15.657176	6.461536	-18.054605	-6.552385	3.084221	11.471069	1.765956	-1.864080	10.995455	-1.333015	-9.520424	3.480622	-13.917858	2.000963	17.122887	-5.932198	10.905301	4.996679	7.755650	-0.138732	-15.123531	
9.576258	38.021423	-6.983894	6.160748	-5.597000	-5.900366	-6.181642	6.996987	-0.356676	-5.660338	-2.860304	6.180757	6.703882	-0.610814	5.921308	-18.745977	-2.077055	-2.484187	-2.506797	11.913918	2.462322	12.337737	-3.808950	9.012394	-6.651864	0.567852	-2.651089	-8.522637	5.398948	8.118929	5.776123	-3.781845	3.570682	-3.124826	-9.563703	-10.426085	15.045273	6.695543	-17.324152	-6.512439	3.172706	11.403440	1.692628	-1.925095	10.999201	-1.343216	-9.450495	3.425062	-13.963298	1.939265	17.014719	-5.909752	10.963155	4.993963	7.744117	-0.229954	-15.040452	
9.577140	38.021484	-6.987592	6.170013	-5.616490	-5.905580	-6.192394	7.006572	-0.346758	-5.661854	-2.852075	6.179604	6.703882	-0.610814	5.921308	-18.755322	-2.072430	-2.474758	-2.511998	11.922286	2.500762	12.338200	-3.814284	8.977668	-6.633313	0.613526	-2.641149	-8.580367	5.417809	8.057672	5.913079	-3.786717	3.624178	-3.233411	-9.596391	-10.412476	14.803272	6.777760	-16.911547	-6.513682	3.167492	11.362015	1.698026	-1.943356	10.972984	-1.362753	-9.428612	3.402028	-13.981676	1.899949	16.954653	-5.897864	10.957833	4.965943	7.727106	-0.264078	-15.012133	
9.550630	38.026375	-7.001465	6.198874	-5.683635	-5.922186	-6.226293	7.040415	-0.314287	-5.666987	-2.824075	6.175718	6.703882	-0.610814	5.921308	-18.775841	-2.060531	-2.441692	-2.448572	11.978092	2.528211	12.256695	-3.832636	8.945007	-6.628351	0.689133	-2.763171	-8.645743	5.478647	7.993946	6.159993	-3.777173	3.840793	-3.618481	-9.926620	-10.271564	14.380896	7.123978	-15.898428	-6.461813	3.221721	11.379945	1.694460	-2.007720	10.905957	-1.420230	-9.349032	3.292291	-14.042820	1.738163	16.741642	-5.738826	11.018401	4.843693	7.567597	-0.352807	-14.746367	
9.537802	38.027435	-7.003146	6.205548	-5.734869	-5.928024	-6.225650	7.079542	-0.292985	-5.674910	-2.810366	6.167052	6.697114	-0.612797	5.920541	-18.774885	-2.031479	-2.419076	-2.429932	12.018317	2.550013	12.223308	-3.860869	8.922946	-6.626623	0.741485	-2.805974	-8.622511	5.502910	7.995346	6.187721	-3.775258	3.891246	-3.735531	-10.061440	-10.284517	14.324563	7.190347	-15.670439	-6.405528	3.223928	11.391011	1.662301	-1.977362	10.881536	-1.446412	-9.337263	3.212760	-14.102919	1.647997	16.634657	-5.616414	10.993919	4.693656	7.450123	-0.318512	-14.563678	
9.502716	38.024986	-6.998646	6.183684	-5.857827	-5.926217	-6.191817	7.133372	-0.047854	-5.694784	-2.709845	5.939643	6.679154	-0.618083	5.918452	-18.719553	-1.960126	-2.378259	-2.401066	12.167763	2.600103	12.141665	-3.972747	8.878418	-6.574841	0.875046	-2.964815	-8.492971	5.493341	8.035483	6.301617	-3.749166	3.988559	-4.204437	-10.494172	-10.464001	14.416166	7.433812	-15.409819	-6.309696	3.310488	11.393119	1.650108	-1.950187	10.809176	-1.481951	-9.539614	2.890658	-14.399834	1.308892	16.198885	-5.528927	10.965963	4.652605	7.360012	-0.326906	-14.357111	
9.498475	38.024193	-7.005099	6.173949	-5.907040	-5.925162	-6.176769	7.161481	0.059654	-5.690745	-2.669969	5.840653	6.658762	-0.624079	5.916112	-18.696316	-1.928059	-2.361445	-2.416128	12.186077	2.635845	12.135609	-3.983615	8.841817	-6.595453	0.895308	-2.975809	-8.403648	5.513537	7.985822	6.376680	-3.759337	3.988421	-4.413595	-10.640415	-10.561677	14.485011	7.550272	-15.348966	-6.212006	3.419653	11.375232	1.620758	-1.936257	10.655416	-1.510565	-9.709965	2.844353	-14.617447	0.928223	15.505814	-5.286922	10.962335	4.453952	7.169524	-0.270283	-14.179926	
